<svg xmlns="http://www.w3.org/2000/svg" width="188" height="80" viewBox="0 0 188 80">
    <g fill="#FFF" fill-rule="evenodd">
        <path d="M106.343 78.012l2.762-17.498c1.337.616 2.824.96 4.391.96 5.827 0 10.551-4.745 10.551-10.597 0-1.503-.312-2.933-.874-4.228.898.249 1.843.383 2.82.383 2.26 0 4.353-.714 6.07-1.928l-5.131 32.908h-20.589zm9.973-37.348a10.513 10.513 0 0 0-4.028-.314l5.958-37.745h20.443l-4.278 27.44a10.52 10.52 0 0 0-8.418-4.206c-5.827 0-10.551 4.744-10.551 10.597 0 1.503.312 2.932.874 4.228zM132.345 78.033l11.891-75.669h43.54l-2.722 17.356h-23.43l-2.002 12.488h21.92l-2.618 16.298H157.11l-4.637 29.527zM10.702 51.999c3.162 3.404 6.165 5.873 9.028 7.426 2.863 1.534 5.831 2.31 8.887 2.31 2.53 0 4.55-.617 6.06-1.852 1.51-1.252 2.266-2.875 2.266-4.903 0-2.752-3.04-5.733-9.134-8.925-.597-.318-1.053-.565-1.387-.723-5.954-3.105-10.012-6.086-12.207-8.943-2.196-2.858-3.302-6.35-3.302-10.442 0-7.479 2.511-13.6 7.535-18.362C23.47 2.84 29.952.46 37.873.46c4.18 0 8.202.74 12.067 2.223 3.764 1.45 7.342 3.592 10.703 6.393a37.22 37.22 0 0 0-5.064 5.13 43.446 43.446 0 0 0-5.348 8.308c-1.933-1.512-3.736-2.69-5.402-3.533-2.231-1.13-4.286-1.694-6.166-1.694-2.054 0-3.776.6-5.146 1.782s-2.055 2.628-2.055 4.356c0 2.135 2.565 4.516 7.71 7.161 1.81.936 3.215 1.694 4.216 2.276a57.485 57.485 0 0 1 2.895 1.71 49.523 49.523 0 0 0-.765 8.731c0 5.643.829 10.74 2.486 15.29 1.268 3.481 3.02 6.637 5.255 9.465a24.19 24.19 0 0 1-4.162 4.614c-5.586 4.85-13.19 7.267-22.798 7.267-5.041 0-9.748-1.076-14.139-3.228S3.8 71.348.27 67.115L10.701 52z"/>
        <path d="M104.978 59.522l-2.72 16.936c-1.083.33-2.21.627-3.386.888-1.38.307-2.835.566-4.366.774h-.004a62.495 62.495 0 0 1-4.764.483 80.15 80.15 0 0 1-5.144.157c-5.24 0-9.947-.81-14.12-2.43-4.154-1.613-7.794-4.034-10.918-7.265-3.126-3.233-5.472-6.997-7.035-11.289-1.571-4.313-2.357-9.173-2.357-14.58 0-2.622.2-5.17.604-7.646a44.202 44.202 0 0 1 1.827-7.273 42.285 42.285 0 0 1 3.02-6.774 41.352 41.352 0 0 1 4.136-6.085l.004-.004a34.951 34.951 0 0 1 6.161-5.93c2.287-1.716 4.805-3.169 7.555-4.36V5.12c2.736-1.19 5.647-2.083 8.732-2.68 2.742-.53 5.62-.825 8.642-.9 8.399-.162 16.09 2.32 22.256 6.682l-2.954 18.184a23.86 23.86 0 0 0-10.762-8.36c.136-.678.208-1.38.208-2.098 0-5.852-4.724-10.597-10.552-10.597-5.827 0-10.551 4.745-10.551 10.597 0 1.264.22 2.477.625 3.602a23.885 23.885 0 0 0-12.06 20.78c0 2.902.516 5.684 1.46 8.256a10.6 10.6 0 0 0-6.25 9.68c0 5.851 4.724 10.596 10.551 10.596 4.264 0 7.936-2.54 9.6-6.196a23.631 23.631 0 0 0 8.415 1.54c5.3 0 10.194-1.74 14.147-4.684z"/>
        <path d="M131.931 31.056a7.73 7.73 0 0 0-10.943-.445c-2.42 2.24-3.163 5.91-1.808 8.922l.24.533-.206.547a6.537 6.537 0 0 1-1.688 2.515 6.43 6.43 0 0 1-.846.651 7.664 7.664 0 0 0-3.149-.679c-1.742 0-3.453.6-4.816 1.69l-.419.333-.533-.03c-2.389-.13-4.457-1.495-5.532-3.649l-.162-.324.014-.364c.006-.15.01-.302.01-.454 0-5.24-3.528-9.787-8.58-11.06l-.64-.161-.286-.6a6.696 6.696 0 0 1-.644-2.854c0-.903.184-1.784.544-2.619l.18-.415.386-.233a7.83 7.83 0 0 0 3.77-6.674c0-4.288-3.474-7.777-7.745-7.777-4.27 0-7.744 3.49-7.744 7.777 0 3.305 2.181 6.34 5.305 7.383l.553.184.261.524a6.56 6.56 0 0 1 .422 4.824l-.206.692-.679.237c-4.556 1.593-7.617 5.922-7.617 10.772 0 1.965.508 3.903 1.468 5.608l.331.59-.25.628a6.643 6.643 0 0 1-4.491 3.972l-.42.109-.408-.148a7.687 7.687 0 0 0-2.631-.463c-4.27 0-7.744 3.49-7.744 7.778 0 4.288 3.473 7.777 7.744 7.777 4.27 0 7.744-3.489 7.744-7.777a7.754 7.754 0 0 0-.56-2.906l-.224-.558.246-.55a6.583 6.583 0 0 1 4.958-3.821l.426-.07.391.183c1.5.7 3.109 1.056 4.78 1.056 2.953 0 5.75-1.132 7.875-3.188l.32-.31.44-.068c.337-.053.658-.078.984-.078 2.007 0 3.883.904 5.143 2.48l.281.35.027.45c.24 4.099 3.635 7.31 7.728 7.31 4.27 0 7.745-3.49 7.745-7.778a7.75 7.75 0 0 0-1.408-4.458 6.62 6.62 0 0 1 1.036-1.237 6.507 6.507 0 0 1 2.284-1.374l.427-.15.432.128c2.601.768 5.453.1 7.44-1.74 3.14-2.908 3.339-7.838.444-10.99z"/>
    </g>
</svg>
