<?xml version="1.0" encoding="UTF-8"?>
<svg width="18px" height="18px" viewBox="0 0 18 18" version="1.1" xmlns="http://www.w3.org/2000/svg" xmlns:xlink="http://www.w3.org/1999/xlink">
    <!-- Generator: Sketch 55.2 (78181) - https://sketchapp.com -->
    <title>phone</title>
    <desc>Created with Sketch.</desc>
    <g id="Наполненный-дизайн" stroke="none" stroke-width="1" fill="none" fill-rule="evenodd">
        <g id="001_Homepage" transform="translate(-278.000000, -5272.000000)" fill="#009DE1">
            <g id="Contact-#1" transform="translate(0.000000, 4928.000000)">
                <g id="Group" transform="translate(277.000000, 203.000000)">
                    <g id="Phone-number" transform="translate(1.000000, 139.000000)">
                        <g id="phone" transform="translate(0.000000, 2.000000)">
                            <g id="114333">
                                <path d="M17.9492586,14.7834698 C17.8921552,14.3518578 17.6429871,13.9797155 17.2657241,13.7625129 L12.8345431,11.2112069 C12.2918276,10.8987284 11.6033276,10.9896983 11.1603491,11.4326379 L10.2875431,12.305444 C10.0552888,12.5377371 9.68784052,12.5582974 9.43300862,12.3531983 C8.74493534,11.7995431 8.06745259,11.1902198 7.41941379,10.5421422 C6.771375,9.89410345 6.16205172,9.21665948 5.60835776,8.52854741 C5.40325862,8.27367672 5.42378017,7.90626724 5.65611207,7.67397414 L6.52887931,6.8011681 C6.97181897,6.35826724 7.06290517,5.66984483 6.75034914,5.12701293 L4.1990431,0.695831897 C3.98180172,0.318530172 3.60969828,0.0694008621 3.17808621,0.0122974138 C2.74643534,-0.0449224138 2.32231034,0.0990387931 2.01444828,0.406900862 L0.699323276,1.72206466 C-0.218560345,2.63998707 -0.233301724,4.31903017 0.657814655,6.44997414 C1.51467672,8.49894828 3.11372845,10.7545345 5.16033621,12.8012198 C7.20702155,14.8478664 9.46260776,16.4469181 11.5116207,17.3037802 C12.5605474,17.7424138 13.4998836,17.961556 14.2929698,17.961556 C15.1110388,17.961556 15.773431,17.7282931 16.2395302,17.2622328 L17.5546552,15.947069 C17.8624784,15.6392069 18.0063233,15.2150819 17.9492586,14.7834698 L17.9492586,14.7834698 Z M12.5442155,11.7154784 L16.9753966,14.2667845 C17.1945388,14.3929397 17.3392371,14.6090948 17.3723664,14.8597759 C17.4002198,15.0701509 17.3455603,15.277306 17.2216552,15.4442328 L11.3326681,12.0832759 L11.5718276,11.8441164 C11.8290647,11.5868793 12.2290216,11.5340043 12.5442155,11.7154784 L12.5442155,11.7154784 Z M3.10174138,0.589189655 C3.35246121,0.622357759 3.56857759,0.767056034 3.69473276,0.986198276 L6.24603879,5.41737931 C6.42759052,5.73265086 6.37467672,6.13253017 6.11743966,6.38972845 L5.89775431,6.60941379 L2.5183319,0.739900862 C2.65647414,0.637603448 2.82169397,0.582051724 2.99393534,0.582051724 C3.02966379,0.582051724 3.06570259,0.584418103 3.10174138,0.589189655 Z M15.8280129,16.8507543 C15.0987802,17.5799871 13.6073405,17.5494181 11.7361164,16.7668836 C9.75534052,15.9385733 7.5662069,14.384056 5.57185345,12.3897414 C3.5775,10.3953879 2.02298276,8.20621552 1.19467241,6.22547845 C0.412099138,4.35421552 0.381568966,2.86277586 1.11080172,2.13350431 L2.08710776,1.15715948 L5.47161207,7.03555603 L5.24463362,7.26253448 C4.80181034,7.70539655 4.76325,8.40646552 5.15498276,8.89339655 C5.72171121,9.59772414 6.34515517,10.2908793 7.00789655,10.9536207 C7.67071552,11.6164009 8.36387069,12.2398448 9.06815948,12.8065733 C9.55501293,13.198306 10.2560819,13.1597845 10.6990216,12.7168836 L10.9060991,12.509806 L16.8032716,15.8754569 L15.8280129,16.8507543 Z" id="Shape" fill-rule="nonzero"></path>
                            </g>
                        </g>
                    </g>
                </g>
            </g>
        </g>
    </g>
</svg>