<?xml version="1.0" encoding="UTF-8"?>
<svg width="40px" height="30px" viewBox="0 0 40 30" version="1.1" xmlns="http://www.w3.org/2000/svg" xmlns:xlink="http://www.w3.org/1999/xlink">
    <!-- Generator: Sketch 55.2 (78181) - https://sketchapp.com -->
    <title>Mask</title>
    <desc>Created with Sketch.</desc>
    <defs>
        <path d="M3.44465383,28.277359 C3.1990783,28.7685101 3.45699692,29.1666667 4.00844055,29.1666667 L11.5,29.1666667 L17.1666667,17.8333333 L17.1666667,1.83329353 C17.1666667,1.28103076 16.7119577,0.833333333 16.1667065,0.833333333 L1.16662687,0.833333333 C0.614364098,0.833333333 0.166666667,1.28804227 0.166666667,1.83329353 L0.166666667,16.8333731 C0.166666667,17.3856359 0.623663584,17.8333333 1.17510722,17.8333333 L8.66666667,17.8333333 L3.44465383,28.277359 Z M26.1113205,28.277359 C25.865745,28.7685101 26.1236636,29.1666667 26.6751072,29.1666667 L34.1666667,29.1666667 L39.8333333,17.8333333 L39.8333333,1.83329353 C39.8333333,1.28103076 39.3786244,0.833333333 38.8333731,0.833333333 L23.8332935,0.833333333 C23.2810308,0.833333333 22.8333333,1.28804227 22.8333333,1.83329353 L22.8333333,16.8333731 C22.8333333,17.3856359 23.2903303,17.8333333 23.8417739,17.8333333 L31.3333333,17.8333333 L26.1113205,28.277359 Z" id="path-1"></path>
    </defs>
    <g id="Наполненный-дизайн" stroke="none" stroke-width="1" fill="none" fill-rule="evenodd">
        <g id="003_Events" transform="translate(-567.000000, -2817.000000)">
            <g id="Group-7" transform="translate(0.000000, 2611.000000)">
                <g id="Group-6" transform="translate(150.000000, 52.000000)">
                    <g id="Group-4" transform="translate(417.000000, 154.000000)">
                        <g id="quote">
                            <mask id="mask-2" fill="white">
                                <use xlink:href="#path-1"></use>
                            </mask>
                            <use id="Mask" fill="#5CB433" opacity="0.4" transform="translate(20.000000, 15.000000) rotate(-180.000000) translate(-20.000000, -15.000000) " xlink:href="#path-1"></use>
                        </g>
                    </g>
                </g>
            </g>
        </g>
    </g>
</svg>