<svg xmlns="http://www.w3.org/2000/svg" width="68" height="58" viewBox="0 0 68 58">
    <g fill="#5CB433" fill-rule="nonzero">
        <path d="M67.652 33.493a.994.994 0 0 0-1.4-.163l-1.954 1.555-15.793-20.81 9.029-5.814c.463-.299.597-.917.3-1.382a.994.994 0 0 0-1.376-.3l-9.937 6.4c-.482.31-.602.989-.254 1.447l1.808 2.383-1.286.987-5.105-1.692c-.1-.033-.207-.05-.313-.05H29.684a.997.997 0 0 0-.967.756l-.657 2.64-1.66-.701a.994.994 0 0 0-.503-.072l-4.618.543-1.569-.914 1.493-2.594a1.012 1.012 0 0 0-.365-1.366L1.494 3.138a.994.994 0 0 0-1.36.366 1.002 1.002 0 0 0 .364 1.365l15.16 8.784L2.574 36.396l-1.08-.625a.994.994 0 0 0-1.36.365 1.002 1.002 0 0 0 .364 1.366l5.264 3.05c.47.272 1.09.105 1.36-.366l.762-1.324 2.15 1.15a4.215 4.215 0 0 0 .323 4.392 4.177 4.177 0 0 0 4.684 1.53 4.11 4.11 0 0 0 .823 2.468 4.184 4.184 0 0 0 3.353 1.665 4.18 4.18 0 0 0 1.266-.196c.011.835.268 1.673.791 2.4a4.154 4.154 0 0 0 2.727 1.684 4.127 4.127 0 0 0 1.938-.145c.012.856.284 1.686.794 2.394a4.155 4.155 0 0 0 2.727 1.684 4.142 4.142 0 0 0 3.115-.744l2.324-1.688a4.178 4.178 0 0 0 1.201-1.353l4.089 2.237a4.15 4.15 0 0 0 3.183.34 4.159 4.159 0 0 0 2.492-2.018 4.179 4.179 0 0 0 .484-2.477 4.186 4.186 0 0 0 4.914-4.597 4.185 4.185 0 0 0 4.435-2.12c.417-.766.582-1.624.485-2.475a4.113 4.113 0 0 0 1.94-.103 4.16 4.16 0 0 0 2.493-2.018c.534-.984.655-2.12.34-3.195a4.258 4.258 0 0 0-.296-.74l1.748-1.245.922 1.216c.333.439.98.52 1.412.177l2.75-2.188c.43-.343.503-.972.161-1.404zM5.896 38.32L4.3 37.396l13.083-22.743 1.596.925L5.896 38.32zm9.135 5.403a2.188 2.188 0 0 1-3.06-.492 2.207 2.207 0 0 1 .49-3.071l7.047-5.117a2.18 2.18 0 0 1 3.023.442c.742.971.533 2.405-.453 3.122l-7.047 5.116zm5.459 3.934a2.197 2.197 0 0 1-3.035-.458c-.738-.984-.454-2.438.523-3.148l5.267-3.824c.192-.129.37-.264.584-.355.305-.13.64-.19.972-.17a2.202 2.202 0 0 1 1.614.86c.743.97.534 2.404-.453 3.12l-5.472 3.975zm5.458 3.933a2.169 2.169 0 0 1-1.631.39 2.176 2.176 0 0 1-1.429-.883 2.207 2.207 0 0 1 .49-3.07l3.753-2.725.146-.106a2.176 2.176 0 0 1 3.023.442c.743.97.533 2.405-.454 3.121l-3.898 2.83zm8.667.781a2.182 2.182 0 0 1-.884 1.465l-2.324 1.687a2.207 2.207 0 0 1-3.06-.492c-.703-.975-.474-2.365.49-3.071l2.177-1.58.148-.108a2.199 2.199 0 0 1 3.022.442c.364.476.517 1.064.43 1.657zm24.25-12.457a2.208 2.208 0 0 1-2.973.879l-11.516-6.3a.994.994 0 0 0-1.351.4 1.002 1.002 0 0 0 .397 1.356l9.651 5.279a2.206 2.206 0 0 1 .876 2.983 2.19 2.19 0 0 1-2.974.879l-9.792-5.357a.994.994 0 0 0-1.35.4 1.002 1.002 0 0 0 .397 1.356l7.928 4.336a2.206 2.206 0 0 1 .874 2.983 2.208 2.208 0 0 1-2.973.878l-8.3-4.54a.994.994 0 0 0-1.351.4 1.002 1.002 0 0 0 .397 1.356l6.434 3.52c1.048.573 1.448 1.93.876 2.983a2.207 2.207 0 0 1-2.973.878l-4.513-2.468a4.17 4.17 0 0 0-.865-2.618 4.163 4.163 0 0 0-3.111-1.645 4.177 4.177 0 0 0-.773-3.432 4.163 4.163 0 0 0-3.112-1.644 4.177 4.177 0 0 0-.773-3.432 4.163 4.163 0 0 0-3.111-1.644 4.176 4.176 0 0 0-.773-3.432 4.153 4.153 0 0 0-5.77-.844l-6.952 5.047-2.508-1.342 9.833-17.093 1.852 1.079a.995.995 0 0 0 .616.128l4.686-.55 1.703.719-.979 3.928c-.02.079-.03.16-.03.242v8.53c0 2.904 2.354 5.265 5.247 5.265 2.892 0 5.246-2.361 5.246-5.264V25.87l.18-.29L57.99 36.931c1.048.573 1.448 1.93.875 2.983zm.476-4.491a4.26 4.26 0 0 0-.398-.248L38.293 23.88l.767-1.23a1.002 1.002 0 0 0-.317-1.377.994.994 0 0 0-1.373.318l-2.156 3.462a1.004 1.004 0 0 0-.151.53v8.53c0 1.801-1.46 3.266-3.254 3.266a3.263 3.263 0 0 1-3.254-3.265v-8.408l1.906-7.654h10.75l5.453 1.808c.31.103.659.044.918-.155l1.7-1.306L61.198 34.1l-1.857 1.324zM67.71.518a.994.994 0 0 0-1.376-.301l-5.581 3.595a1.002 1.002 0 0 0 .539 1.84.99.99 0 0 0 .537-.158l5.58-3.594c.463-.299.598-.917.3-1.382z"/>
    </g>
</svg>
