<svg xmlns="http://www.w3.org/2000/svg" width="68" height="68" viewBox="0 0 68 68">
    <g fill="#5CB433" fill-rule="nonzero">
        <path d="M56.332 57.362l-1.498-.507a1.463 1.463 0 0 1-.988-1.391v-1.551l.446-.274a3.188 3.188 0 0 0 1.508-2.703V48.27 45.93c0-1.926-1.556-3.494-3.47-3.494H49.27c-1.914 0-3.47 1.568-3.47 3.494v5.005c0 1.097.578 2.133 1.508 2.703l.448.275v1.55c0 .406-.17.8-.466 1.077a1.439 1.439 0 0 1-.527.315l-1.496.506a5.53 5.53 0 0 0-2.065 1.252l-.017.016-.017.015-.016.017-.041.045a.807.807 0 0 0-.027.033l-.033.042-.027.042-.023.038-.027.048-.017.036c-.008.018-.016.035-.022.053l-.014.038-.017.052-.01.042-.011.05a.803.803 0 0 0-.017.147v.04a1.06 1.06 0 0 0 .004.097l.007.054a1.361 1.361 0 0 0 .019.093l.015.052.013.04.023.058.008.02a4.7 4.7 0 0 1 .425 1.965v5.159a.999.999 0 0 0 .996 1.002c.55 0 .996-.449.996-1.002v-5.159c0-.709-.109-1.4-.323-2.063.263-.177.548-.32.854-.423l1.495-.506c.27-.091.523-.214.759-.366.413.122.833.214 1.257.273l-1.5 5.334c-.093.331-.01.686.217.942l1.831 2.054a.993.993 0 0 0 .717.333h.025c.265 0 .52-.106.707-.296l2.026-2.054c.26-.264.353-.651.243-1.005l-1.66-5.338c.443-.072.88-.18 1.308-.32.27.188.564.339.875.443l1.494.506a3.64 3.64 0 0 1 2.463 3.455v4.19a.999.999 0 0 0 .997 1.002c.55 0 .996-.449.996-1.002v-4.19a5.64 5.64 0 0 0-3.82-5.354zm-5.57-.62a6.77 6.77 0 0 1-1.226-.087c.138-.379.211-.782.211-1.192v-.405a3.108 3.108 0 0 0 2.106 0v.405c0 .39.064.769.185 1.127-.42.09-.846.142-1.276.151zm-2.97-8.182l1.793-.942 4.223 1.368v1.95c0 .403-.212.783-.553.992l-1.858 1.14a1.139 1.139 0 0 1-1.195 0l-1.857-1.14a1.17 1.17 0 0 1-.553-.992V48.56zm1.477-4.12h3.062c.814 0 1.477.67 1.477 1.491v.95l-4.01-1.299a.99.99 0 0 0-.766.066l-1.24.651v-.368c0-.822.662-1.49 1.477-1.49zm1.47 20.424l-.76-.853.772-2.744.848 2.725-.86.872zM40.827 55.377l-1.843-.625a2.026 2.026 0 0 1-.814-.518l-.001-.002a2.049 2.049 0 0 1-.563-1.414V50.78l.661-.406a3.692 3.692 0 0 0 1.746-3.13V43.96v-2.875c0-2.245-1.813-4.07-4.041-4.07h-3.77c-2.227 0-4.04 1.825-4.04 4.07v6.161c0 1.27.669 2.47 1.746 3.13l.662.406v2.037c0 .565-.237 1.112-.646 1.496-.214.2-.46.347-.734.439l-1.841.624a6.704 6.704 0 0 0-3.327 2.504 5.596 5.596 0 0 0-1.113-.519l-1.5-.507a1.47 1.47 0 0 1-.989-1.391l.001-1.55.447-.275a3.188 3.188 0 0 0 1.508-2.703V48.27 45.93c0-1.926-1.557-3.494-3.47-3.494h-3.061c-1.914 0-3.47 1.568-3.47 3.494v5.005c0 1.097.578 2.133 1.508 2.703l.447.275v1.55c0 .407-.17.8-.466 1.077a1.433 1.433 0 0 1-.525.315l-1.496.506a5.64 5.64 0 0 0-3.819 5.354v4.19a.999.999 0 0 0 .996 1.002 1 1 0 0 0 .996-1.002v-4.19a3.64 3.64 0 0 1 2.463-3.455l1.495-.506c.27-.091.522-.214.758-.366.413.122.832.214 1.257.273l-1.5 5.334c-.093.33-.01.686.217.942l1.831 2.054a.995.995 0 0 0 .717.333h.025c.265 0 .52-.106.707-.296l2.025-2.055c.26-.263.354-.65.243-1.004l-1.66-5.338c.443-.072.88-.18 1.31-.321.269.19.564.34.874.444l1.495.506c.306.104.592.246.854.423a6.721 6.721 0 0 0-.322 2.063v5.159a.999.999 0 0 0 .996 1.002 1 1 0 0 0 .996-1.002v-5.16a4.71 4.71 0 0 1 3.189-4.47l1.838-.624c.346-.116.671-.278.972-.484a10.46 10.46 0 0 0 1.879.391l-1.92 6.828c-.092.33-.011.686.217.941l2.254 2.53a.995.995 0 0 0 1.45.036l2.493-2.53c.26-.263.353-.65.243-1.004l-2.124-6.831c.662-.091 1.314-.245 1.95-.461.338.25.713.45 1.111.584l1.84.624a.997.997 0 0 0 1.262-.63 1.003 1.003 0 0 0-.624-1.27zM17.338 56.74a6.77 6.77 0 0 1-1.226-.086c.137-.379.21-.782.21-1.192v-.405a3.099 3.099 0 0 0 2.107 0v.405c0 .389.064.769.184 1.127-.418.09-.845.142-1.275.151zm-2.97-8.181l1.793-.942 4.223 1.368v1.95c0 .403-.212.783-.553.992l-1.858 1.14a1.138 1.138 0 0 1-1.195 0l-1.857-1.14c-.341-.209-.553-.59-.553-.992V48.56zm1.477-4.12h3.062c.814 0 1.477.67 1.477 1.491v.95l-4.01-1.299a.99.99 0 0 0-.766.066l-1.24.651v-.368c0-.822.663-1.49 1.477-1.49zm1.47 20.424l-.76-.853.772-2.744.848 2.725-.86.872zm16.731-10.24a8.488 8.488 0 0 1-1.833-.163c.227-.513.35-1.073.35-1.643v-.845a3.601 3.601 0 0 0 1.525.342c.52 0 1.04-.116 1.525-.342v.845c0 .54.107 1.066.308 1.553a8.443 8.443 0 0 1-1.875.252zm-1.843-15.607h3.77a2.06 2.06 0 0 1 2.048 2.067v1.486l-5.237-1.696a.992.992 0 0 0-.766.066l-1.864.979v-.835c0-1.14.92-2.067 2.049-2.067zm-2.049 5.162l2.416-1.269 5.451 1.766v2.57c0 .575-.303 1.12-.791 1.418l-2.287 1.403a1.63 1.63 0 0 1-1.71 0l-2.288-1.403a1.674 1.674 0 0 1-.79-1.419V44.18zm3.851 20.55l-1.183-1.328 1.195-4.249 1.315 4.23-1.327 1.347z"/>
        <path d="M67.708 49.245L44.926 26.323l-.005-.004-8.045-8.095a3.84 3.84 0 0 0-1.88-1.046v-6.316h10.932c.586 0 1.1-.356 1.307-.908a1.399 1.399 0 0 0-.384-1.551L44.26 6.107 46.85 3.81c.44-.39.591-1 .384-1.551a1.386 1.386 0 0 0-1.307-.91H34.996v-.348A.999.999 0 0 0 34 0a.999.999 0 0 0-.996 1.002v16.246a3.849 3.849 0 0 0-1.611.976l-3.543 3.565a1.006 1.006 0 0 0 0 1.416.992.992 0 0 0 1.408 0l3.543-3.564c.356-.359.83-.556 1.333-.556.504 0 .977.197 1.333.556l7.185 7.229-3.085 2.047-3.694-2.6a.991.991 0 0 0-1.17.02L31.318 28.9l-3.247-2.18a.992.992 0 0 0-.916-.1l-2.121.834 1.065-1.072c.39-.391.39-1.026 0-1.417a.993.993 0 0 0-1.408 0l-4.417 4.444a.025.025 0 0 0-.005.005L.292 49.514a1.006 1.006 0 0 0 0 1.418.99.99 0 0 0 1.409 0l19.824-19.946 5.873-2.309 3.402 2.285a.991.991 0 0 0 1.152-.033l3.37-2.553 3.656 2.574a.991.991 0 0 0 1.12.015l3.992-2.649L66.3 50.662a.99.99 0 0 0 1.408 0c.389-.391.389-1.026 0-1.417zM44.352 3.355l-1.916 1.697a1.41 1.41 0 0 0 0 2.11l1.916 1.697h-9.356V3.354h9.356z"/>
    </g>
</svg>
