<svg xmlns="http://www.w3.org/2000/svg" width="68" height="68" viewBox="0 0 68 68">
    <path fill="#5CB433" fill-rule="nonzero" d="M67.824 13.639a1.718 1.718 0 0 0-1.414-1.158l-5-.653a3.788 3.788 0 0 0-.653-4.47 3.753 3.753 0 0 0-2.673-1.107h-.002c-.592 0-1.162.137-1.677.393l-.653-5.004A1.72 1.72 0 0 0 54.594.226a1.72 1.72 0 0 0-1.78.415l-7.13 7.13a1.733 1.733 0 0 0-.484 1.497l1.153 7.178-.33.331c-4.966-3.828-11.02-5.903-17.393-5.903a28.367 28.367 0 0 0-16.584 5.304.995.995 0 1 0 1.157 1.62 26.387 26.387 0 0 1 15.427-4.935 26.432 26.432 0 0 1 15.965 5.347l-4.039 4.052a20.797 20.797 0 0 0-11.926-3.744c-11.535 0-20.919 9.384-20.919 20.919 0 11.534 9.384 20.918 20.919 20.918 11.534 0 20.918-9.384 20.918-20.918 0-4.38-1.354-8.447-3.664-11.81l4.045-4.06a26.432 26.432 0 0 1 5.273 15.87c0 14.652-11.92 26.573-26.572 26.573-14.653 0-26.573-11.92-26.573-26.573a26.524 26.524 0 0 1 6.772-17.723.996.996 0 0 0-1.482-1.328 28.51 28.51 0 0 0-7.28 19.05c0 7.63 2.97 14.803 8.365 20.198S21 68 28.63 68c7.63 0 14.802-2.971 20.197-8.366s8.366-12.568 8.366-20.197c0-6.335-2.051-12.354-5.835-17.303l.253-.253 7.17 1.152a1.737 1.737 0 0 0 1.499-.484l1.53-1.531a.995.995 0 1 0-1.407-1.407l-1.436 1.436-5.596-.9 6.512-6.51 5.745.749-.863.863a.996.996 0 0 0 1.407 1.407l1.238-1.237a1.72 1.72 0 0 0 .414-1.78zM53.847 2.422l.75 5.746-6.512 6.51-.9-5.594 6.662-6.662zm-6.29 37.015c0 10.436-8.49 18.927-18.927 18.927-10.438 0-18.928-8.49-18.928-18.927s8.49-18.928 18.928-18.928c3.88 0 7.492 1.174 10.498 3.186l-4.13 4.145a13.144 13.144 0 0 0-6.368-1.638c-7.298 0-13.235 5.937-13.235 13.235 0 7.297 5.937 13.234 13.235 13.234 7.297 0 13.234-5.937 13.234-13.234 0-2.246-.564-4.362-1.555-6.217l4.145-4.159a18.82 18.82 0 0 1 3.103 10.376zM26.78 41.43a3.756 3.756 0 0 0 2.674 1.107h.002c1.011 0 1.96-.395 2.675-1.111l1.41-1.415a4.951 4.951 0 0 1-4.91 4.37 4.95 4.95 0 0 1-4.945-4.945 4.95 4.95 0 0 1 4.675-4.938l-1.584 1.59a3.786 3.786 0 0 0 .003 5.342zm-5.085-1.994a6.943 6.943 0 0 0 6.936 6.935 6.943 6.943 0 0 0 6.935-6.935c0-.454-.046-.897-.13-1.327l3.393-3.404a11.17 11.17 0 0 1 1.046 4.73c0 6.2-5.044 11.245-11.244 11.245-6.201 0-11.245-5.044-11.245-11.244S22.43 28.192 28.63 28.192c1.754 0 3.414.405 4.895 1.125l-3.35 3.36a6.884 6.884 0 0 0-1.545-.175 6.943 6.943 0 0 0-6.936 6.935zm9.026.584c-.338.34-.788.526-1.266.526h-.001c-.479 0-.928-.185-1.266-.524a1.793 1.793 0 0 1-.002-2.529L56.817 8.768c.338-.34.787-.526 1.266-.527h.001a1.792 1.792 0 0 1 1.267 3.054l-28.63 28.726z"/>
</svg>
