<svg xmlns="http://www.w3.org/2000/svg" width="68" height="68" viewBox="0 0 68 68">
    <g fill="#5CB433" fill-rule="nonzero">
        <path d="M16.452 28.516v-2.193c-5.444 0-9.871-4.428-9.871-9.871H4.387c0 6.651 5.413 12.064 12.065 12.064z"/>
        <path d="M16.452 24.129c4.232 0 7.677-3.445 7.677-7.677 0-4.233-3.445-7.678-7.677-7.678-4.233 0-7.678 3.445-7.678 7.678 0 4.232 3.445 7.677 7.678 7.677zm0-13.161a5.49 5.49 0 0 1 5.483 5.484 5.49 5.49 0 0 1-5.483 5.483 5.49 5.49 0 0 1-5.484-5.483 5.49 5.49 0 0 1 5.484-5.484z"/>
        <path d="M16.452 19.742a3.295 3.295 0 0 0 3.29-3.29 3.295 3.295 0 0 0-3.29-3.29 3.295 3.295 0 0 0-3.29 3.29 3.295 3.295 0 0 0 3.29 3.29zm0-4.387a1.098 1.098 0 1 1-.002 2.195 1.098 1.098 0 0 1 .002-2.195z"/>
        <path d="M68 52.327V44.19l-2.968-1.035a17.52 17.52 0 0 0-1.303-3.15l1.367-2.828-1.06-1.059c-.49-.644-1.295-1.494-1.904-2.11a47.785 47.785 0 0 0-2.225-2.117l-7.297-6.381.626-1.88 2.54 1.271 4.22-4.22-1.27-2.54 2.693-.897v-5.968l-2.693-.897 1.27-2.54-4.22-4.22-2.54 1.27-.897-2.694h-5.968l-.897 2.693-2.539-1.27-4.22 4.22 1.27 2.54-2.695.897v.837l-9.027-7.895A17.034 17.034 0 0 0 17.042 0v.03c-.198-.007-.39-.03-.59-.03C7.38 0 0 7.38 0 16.452c0 .2.023.392.03.59H0a17.03 17.03 0 0 0 4.216 11.22l7.9 9.028h-.842l-.897 2.694-2.54-1.27-4.22 4.22 1.27 2.54-2.693.896v5.968l2.693.897-1.27 2.54 4.22 4.22 2.54-1.27.897 2.694h5.968l.897-2.693 2.539 1.27 4.22-4.22-1.27-2.54 1.89-.63 6.367 7.277c.5.57 1.247 1.362 1.952 2.071.666.67 1.584 1.554 2.273 2.08l1.063 1.063 2.828-1.367c1 .533 2.055.97 3.15 1.303L44.188 68h8.138l1.035-2.968a17.52 17.52 0 0 0 3.15-1.303l2.828 1.367 5.756-5.756-1.367-2.828c.533-1 .97-2.055 1.303-3.15L68 52.327zM32.787 40.004c-.533 1-.97 2.055-1.303 3.15l-2.968 1.035v8.138l2.968 1.035a17.52 17.52 0 0 0 1.303 3.15l-.333.688L10.062 31.61a16.36 16.36 0 0 0 6.39 1.292c9.071 0 16.451-7.38 16.451-16.451 0-2.267-.46-4.428-1.293-6.395l25.604 22.391-.7.339c-1-.533-2.056-.97-3.15-1.303l-1.037-2.968H44.19l-1.035 2.968a17.52 17.52 0 0 0-3.15 1.303l-2.828-1.367-5.756 5.756 1.367 2.828zm6.697-27.148l2.518-.84.184-.485c.054-.142.11-.28.17-.415l.212-.475-1.186-2.371 1.984-1.984 2.372 1.185.474-.212c.136-.06.273-.116.415-.17l.486-.184.84-2.518h2.805l.84 2.518.485.184c.142.054.28.11.415.17l.475.212 2.371-1.185 1.984 1.984-1.185 2.371.212.475c.06.136.115.273.17.415l.184.485 2.517.84v2.806l-2.518.839-.184.486c-.055.142-.11.279-.17.415l-.212.474 1.185 2.371-1.984 1.985-2.371-1.186-.475.213c-.136.06-.273.115-.415.169l-.485.184-.777 2.332-11.336-9.915v-1.173zM16.452 2.194c7.861 0 14.258 6.396 14.258 14.258 0 7.861-6.397 14.258-14.258 14.258-7.862 0-14.258-6.397-14.258-14.258 0-7.862 6.396-14.258 14.258-14.258zm5.159 49.403l-.184.485c-.054.142-.11.28-.17.415l-.212.475 1.186 2.371-1.985 1.984-2.37-1.185-.475.212c-.136.06-.274.115-.415.17l-.486.184-.84 2.518h-2.806l-.839-2.518-.485-.184a9.324 9.324 0 0 1-.416-.17l-.474-.212-2.37 1.185-1.984-1.984 1.185-2.371-.212-.475a8.193 8.193 0 0 1-.17-.415l-.184-.485-2.518-.84v-2.806l2.518-.839.184-.486c.054-.142.11-.279.17-.415l.212-.474-1.185-2.37 1.984-1.985 2.371 1.186.475-.213c.136-.06.273-.115.415-.169l.485-.184.84-2.518h1.18l9.917 11.333-2.342.78zm41.614.073l-.15.56a15.262 15.262 0 0 1-1.53 3.698l-.291.503 1.188 2.459-3.552 3.552-2.459-1.188-.503.292a15.366 15.366 0 0 1-3.697 1.528l-.561.15-.9 2.582h-5.024l-.9-2.581-.56-.15a15.262 15.262 0 0 1-3.698-1.53l-.503-.291-2.459 1.188-3.552-3.552 1.188-2.459-.292-.503a15.366 15.366 0 0 1-1.528-3.697l-.15-.561-2.582-.9v-5.024l2.581-.9.151-.56a15.262 15.262 0 0 1 1.528-3.698l.292-.503-1.188-2.459 3.552-3.552 2.459 1.188.503-.292a15.366 15.366 0 0 1 3.697-1.528l.561-.15.9-2.582h5.024l.9 2.581.56.151c1.304.349 2.547.863 3.698 1.528l.503.292 2.459-1.188 3.552 3.552-1.188 2.459.292.503a15.366 15.366 0 0 1 1.528 3.697l.15.561 2.582.9v5.024l-2.581.9z"/>
        <path d="M48.258 37.29c-6.048 0-10.968 4.92-10.968 10.968s4.92 10.968 10.968 10.968 10.968-4.92 10.968-10.968-4.92-10.968-10.968-10.968zm0 19.742c-4.838 0-8.774-3.936-8.774-8.774 0-4.838 3.936-8.774 8.774-8.774 4.838 0 8.774 3.936 8.774 8.774 0 4.838-3.936 8.774-8.774 8.774z"/>
        <path d="M48.258 41.677a6.587 6.587 0 0 0-6.58 6.581c0 3.63 2.95 6.58 6.58 6.58s6.58-2.95 6.58-6.58-2.95-6.58-6.58-6.58zm0 10.968a4.391 4.391 0 0 1-4.387-4.387 4.391 4.391 0 0 1 4.387-4.387 4.391 4.391 0 0 1 4.387 4.387 4.391 4.391 0 0 1-4.387 4.387zM54.839 14.258a5.49 5.49 0 0 0-5.484-5.484 5.49 5.49 0 0 0-5.484 5.484 5.49 5.49 0 0 0 5.484 5.484 5.49 5.49 0 0 0 5.484-5.484zm-8.774 0a3.295 3.295 0 0 1 3.29-3.29 3.295 3.295 0 0 1 3.29 3.29 3.295 3.295 0 0 1-3.29 3.29 3.295 3.295 0 0 1-3.29-3.29zM8.774 49.355a5.49 5.49 0 0 0 5.484 5.484 5.49 5.49 0 0 0 5.484-5.484 5.49 5.49 0 0 0-5.484-5.484 5.49 5.49 0 0 0-5.484 5.484zm8.774 0a3.295 3.295 0 0 1-3.29 3.29 3.295 3.295 0 0 1-3.29-3.29 3.295 3.295 0 0 1 3.29-3.29 3.295 3.295 0 0 1 3.29 3.29z"/>
    </g>
</svg>
