<svg xmlns="http://www.w3.org/2000/svg" width="47" height="56" viewBox="0 0 47 56">
    <g fill="#5CB433" fill-rule="nonzero">
        <path d="M46.831 49.85l-7.46-17.899a.901.901 0 0 0-1.175-.484.892.892 0 0 0-.487 1.168l6.744 16.18-6.151-1.77a.901.901 0 0 0-1.038.426l-3.09 5.576-7.237-17.362c8.353-1.6 14.682-8.919 14.682-17.68C41.619 8.078 33.49 0 23.5 0 13.51 0 5.381 8.077 5.381 18.006c0 4.021 1.334 7.739 3.585 10.739L.169 49.849a.89.89 0 0 0 .16.938c.231.256.59.358.921.263l7.258-2.09 3.645 6.577a.9.9 0 0 0 .787.463l.05-.001a.9.9 0 0 0 .781-.55l6.97-16.724a.892.892 0 0 0-.486-1.167.901.901 0 0 0-1.175.484l-6.254 15.005-3.09-5.576a.902.902 0 0 0-1.038-.427l-6.151 1.771 7.72-18.524a18.124 18.124 0 0 0 14.83 5.65l8.132 19.507a.899.899 0 0 0 .78.55c.018.002.034.002.05.002a.9.9 0 0 0 .788-.463l3.645-6.577 7.258 2.09a.903.903 0 0 0 .92-.263.89.89 0 0 0 .161-.938zM7.18 18.005c0-8.943 7.32-16.219 16.32-16.219s16.32 7.276 16.32 16.219c0 8.943-7.32 16.218-16.32 16.218S7.18 26.949 7.18 18.006z"/>
        <path d="M33.89 14.65a.898.898 0 0 0-.706-.604l-6.051-1.01-2.836-5.406a.9.9 0 0 0-1.594 0l-2.836 5.406-6.05 1.01a.897.897 0 0 0-.707.605.89.89 0 0 0 .213.902l4.299 4.35-.904 6.031c-.05.33.09.659.36.855.271.195.63.225.93.077l5.492-2.718 5.492 2.718a.903.903 0 0 0 .93-.077.891.891 0 0 0 .36-.855l-.904-6.03 4.299-4.351a.89.89 0 0 0 .213-.902zm-6.109 4.32a.89.89 0 0 0-.247.757l.715 4.775-4.348-2.152a.905.905 0 0 0-.802 0l-4.348 2.152.716-4.775a.89.89 0 0 0-.248-.758l-3.404-3.445 4.791-.799a.899.899 0 0 0 .649-.468l2.245-4.28 2.245 4.28c.13.249.37.422.649.468l4.79.8-3.403 3.444z"/>
        <path d="M37.122 18.907a.898.898 0 0 0-1.01.769C35.278 25.932 29.856 30.65 23.5 30.65c-7.016 0-12.723-5.672-12.723-12.644S16.484 5.362 23.5 5.362c6.356 0 11.778 4.718 12.612 10.974a.898.898 0 0 0 1.01.768.895.895 0 0 0 .773-1.003C36.943 8.96 30.755 3.574 23.5 3.574c-8.007 0-14.522 6.474-14.522 14.432 0 7.957 6.515 14.43 14.522 14.43 7.255 0 13.443-5.385 14.395-12.526a.895.895 0 0 0-.773-1.003z"/>
    </g>
</svg>
