<svg xmlns="http://www.w3.org/2000/svg" width="68" height="68" viewBox="0 0 68 68">
    <path fill="#5CB433" fill-rule="nonzero" d="M52.617 36.218l-7.341-9.345a15.771 15.771 0 0 0 4.442-9.907h11.368v1.244a5.664 5.664 0 0 0-4.524 5.542 5.655 5.655 0 1 0 6.786-5.542v-2.375c0-.625-.507-1.131-1.131-1.131H49.718a15.733 15.733 0 0 0-3.313-8.601l1.577-1.578h13.312a3.393 3.393 0 1 0 0-2.262h-13.78c-.3 0-.587.12-.8.331l-1.826 1.827c-6.285-6.053-16.287-5.865-22.34.42a15.8 15.8 0 0 0-4.381 9.863h-9.5L4.968 6.388a3.382 3.382 0 1 0-2.342.3l4.27 9.607a1.13 1.13 0 0 0 1.033.67h10.236a15.764 15.764 0 0 0 4.363 9.815l-9.548 9.548C6.807 35.403 1.053 39.658.128 45.83c-.925 6.174 3.33 11.928 9.503 12.853.186.028.373.051.56.07v5.713c0 .624.507 1.13 1.132 1.13H21.71a3.393 3.393 0 1 0 0-2.261h-9.256v-4.582c6.212-.62 10.745-6.157 10.126-12.369a11.303 11.303 0 0 0-7.072-9.382l8.708-8.708a15.73 15.73 0 0 0 19.361.078l6.275 7.987c-8.664 1.208-14.708 9.211-13.5 17.875 1.21 8.664 9.213 14.708 17.876 13.5 8.664-1.21 14.708-9.212 13.5-17.876a15.839 15.839 0 0 0-15.11-13.64zM65.61 23.752a3.393 3.393 0 1 1-6.786 0 3.393 3.393 0 0 1 6.786 0zm-1.131-21.49a1.131 1.131 0 1 1 0 2.263 1.131 1.131 0 0 1 0-2.262zM3.406 4.526a1.131 1.131 0 1 1 0-2.262 1.131 1.131 0 0 1 0 2.262zm21.489 58.81a1.131 1.131 0 1 1 0 2.263 1.131 1.131 0 0 1 0-2.262zm-9.048-8.009a8.97 8.97 0 0 1-9.048 0v-2.17a4.524 4.524 0 0 1 9.048 0v2.17zM9.06 44.11a2.262 2.262 0 1 1 4.524 0 2.262 2.262 0 0 1-4.524 0zm9.048-2.611a9.048 9.048 0 0 1 2.262 6.004 9 9 0 0 1-2.262 5.965v-.31a6.786 6.786 0 0 0-3.514-5.941 4.524 4.524 0 1 0-6.545 0 6.786 6.786 0 0 0-3.513 5.94v.31A9.048 9.048 0 0 1 18.11 41.499zm23.75-14.666a13.476 13.476 0 0 1-15.833 0v-2.741a3.732 3.732 0 0 1 3.732-3.732h2.51l-1.64 4.103c-.169.42-.07.9.25 1.22l2.263 2.262a1.131 1.131 0 0 0 1.599 0l2.262-2.262c.32-.32.419-.8.25-1.22l-1.64-4.103h2.515a3.732 3.732 0 0 1 3.732 3.732v2.741zM34.104 8.466c-.042.071-.077.146-.103.224-.572 1.716-3.662 2.366-5.65 2.555.302-3.79 2.086-5.59 5.592-5.59 3.21 0 4.976 1.519 5.481 4.685l-3.768-2.262a1.131 1.131 0 0 0-1.552.388zm1.398 2.16l4.042 2.425c-.453 2.769-3.865 5.046-5.602 5.046a7.125 7.125 0 0 1-5.497-4.583c1.936-.16 5.432-.747 7.057-2.889zm-.625 13.984l-.935.935-.934-.935.934-2.338.935 2.338zm4-6.461a7.852 7.852 0 0 0 2.982-5.707c0-7.478-4.305-9.048-7.917-9.048-3.61 0-7.916 1.57-7.916 9.048a7.851 7.851 0 0 0 2.982 5.71 5.975 5.975 0 0 0-5.244 5.939v.687c-4.958-5.621-4.42-14.197 1.202-19.155C30.587.665 39.163 1.203 44.12 6.825a13.572 13.572 0 0 1 0 17.953v-.687a5.975 5.975 0 0 0-5.244-5.942zm21.078 44.875a13.476 13.476 0 0 1-15.834 0v-2.742a3.732 3.732 0 0 1 3.732-3.732h2.511l-1.64 4.103c-.169.42-.07.9.25 1.22l2.262 2.262a1.131 1.131 0 0 0 1.6 0l2.261-2.262c.32-.32.42-.8.251-1.22l-1.64-4.103h2.515a3.732 3.732 0 0 1 3.732 3.732v2.742zm-6.357-16.207v-.001l4.042 2.425c-.454 2.77-3.866 5.047-5.602 5.047a7.125 7.125 0 0 1-5.498-4.583c1.937-.16 5.432-.746 7.058-2.888zm-7.153.62c.304-3.79 2.087-5.59 5.593-5.59 3.21 0 4.976 1.518 5.482 4.685l-3.768-2.262a1.131 1.131 0 0 0-1.655.612c-.572 1.715-3.662 2.366-5.652 2.554zM52.972 60.8l-.934.936-.934-.936.934-2.338.934 2.338zm9.245.172v-.691a5.975 5.975 0 0 0-5.244-5.942 7.852 7.852 0 0 0 2.982-5.707c0-7.478-4.306-9.048-7.917-9.048-3.611 0-7.917 1.57-7.917 9.048a7.851 7.851 0 0 0 2.983 5.71 5.975 5.975 0 0 0-5.245 5.939v.688c-4.946-5.626-4.395-14.197 1.231-19.143 5.626-4.946 14.197-4.395 19.143 1.23a13.563 13.563 0 0 1 3.377 8.969 13.5 13.5 0 0 1-3.393 8.947z"/>
</svg>
